<svg aria-hidden="true" style="position:absolute;width:0;height:0;overflow:hidden" xmlns="http://www.w3.org/2000/svg">
  <defs>
    <symbol id="icon-castle" viewBox="0 0 32 32">
      <path d="M9.449 21.767h.907a.378.378 0 0 0 .375-.375.376.376 0 0 0-.375-.375h-.907a.376.376 0 0 0-.375.375.376.376 0 0 0 .375.375zm4.294.949h1.16a.378.378 0 0 0 .375-.375.376.376 0 0 0-.375-.375h-1.16a.376.376 0 0 0-.375.375.376.376 0 0 0 .375.375zm6.573 1.961h.97a.376.376 0 0 0 .375-.375.376.376 0 0 0-.375-.375h-.97a.378.378 0 0 0-.375.375.378.378 0 0 0 .375.375zm-9.977-.184a.376.376 0 0 0 .375.375h.907a.376.376 0 0 0 .375-.375.376.376 0 0 0-.375-.375h-.907a.376.376 0 0 0-.375.375zm15.296.822a.376.376 0 0 0 .375.375h1.097a.376.376 0 0 0 .375-.375.376.376 0 0 0-.375-.375H26.01a.376.376 0 0 0-.375.375zM5.674 24.94H4.577a.376.376 0 0 0-.375.375.376.376 0 0 0 .375.375h1.097a.376.376 0 0 0 .375-.375.376.376 0 0 0-.375-.375zm12.055-3.057h.907a.376.376 0 0 0 .375-.375.376.376 0 0 0-.375-.375h-.907a.378.378 0 0 0-.375.375.376.376 0 0 0 .375.375zm-3.06-5.206h2.662a.378.378 0 0 0 .375-.375v-1.79a1.711 1.711 0 0 0-2.914-1.206c-.32.32-.5.754-.5 1.206v1.79a.378.378 0 0 0 .375.375zm.375-2.165a.956.956 0 1 1 1.912 0v1.415h-1.912v-1.415zm-1.973-2.555a.376.376 0 0 0-.375.375v.288a.376.376 0 0 0 .375.375.378.378 0 0 0 .375-.375v-.288a.378.378 0 0 0-.375-.375zm0 1.424a.376.376 0 0 0-.375.375V16.1a.376.376 0 0 0 .375.375.376.376 0 0 0 .375-.375v-2.344a.378.378 0 0 0-.375-.375zm13.145 6.113a.378.378 0 0 0-.375-.375h-1.033a.376.376 0 0 0-.375.375.376.376 0 0 0 .375.375h1.033a.378.378 0 0 0 .375-.375zM7.852 17.079a.376.376 0 0 0-.375-.375H6.443a.376.376 0 0 0-.375.375.376.376 0 0 0 .375.375h1.034a.376.376 0 0 0 .375-.375z"/>
      <path d="M29.021 28.933V15.76a1.01 1.01 0 0 0 .981-1.006v-3.416a.376.376 0 0 0-.375-.375h-1.416a.376.376 0 0 0-.375.375v.764h-.764v-.764a.376.376 0 0 0-.375-.375h-1.416a.376.376 0 0 0-.375.375v.764h-.764v-.764a.376.376 0 0 0-.375-.375h-1.416a.376.376 0 0 0-.375.375v3.416a1.007 1.007 0 0 0 .981 1.006v2.162h-1.553a.376.376 0 0 0-.375.375v.764h-.328v-8.012h.636a.373.373 0 0 0 .369-.438.368.368 0 0 0-.095-.192l-5.236-5.653v-.905l2.59-1.127a.37.37 0 0 0 .225-.338.377.377 0 0 0-.216-.345L16.329.809c-.04-.073-.103-.131-.179-.165s-.162-.041-.243-.02a.376.376 0 0 0-.283.363v3.779l-5.236 5.653a.38.38 0 0 0-.069.405.374.374 0 0 0 .343.225h.636v8.012h-.328v-.764a.376.376 0 0 0-.375-.375H9.042V15.76a1.01 1.01 0 0 0 .981-1.006v-3.416a.376.376 0 0 0-.375-.375H8.232a.376.376 0 0 0-.375.375v.764h-.764v-.764a.376.376 0 0 0-.375-.375H5.302a.376.376 0 0 0-.375.375v.764h-.764v-.764a.376.376 0 0 0-.375-.375H2.372a.376.376 0 0 0-.375.375v3.416a1.007 1.007 0 0 0 .981 1.006v13.173a1.816 1.816 0 0 0-1.74 1.813v.269a.376.376 0 0 0 .375.375h28.773a.376.376 0 0 0 .375-.375v-.269a1.82 1.82 0 0 0-1.74-1.813zM16.375 1.657l1.531.719-1.531.667V1.658zm6.351 13.097v-3.041h.666v.764a.378.378 0 0 0 .375.375h1.514a.376.376 0 0 0 .375-.375v-.764h.666v.764a.378.378 0 0 0 .375.375h1.514a.376.376 0 0 0 .375-.375v-.764h.666v3.041a.26.26 0 0 1-.258.257h-6.011a.258.258 0 0 1-.257-.257zM16 5.464l4.478 4.834h-6.04a.378.378 0 0 0-.375.375.376.376 0 0 0 .375.375h5.513v8.012h-.259v-.764a.376.376 0 0 0-.375-.375h-2.336a.376.376 0 0 0-.375.375v.764h-1.211v-.764a.376.376 0 0 0-.375-.375h-2.336a.376.376 0 0 0-.375.375v.764h-.259v-8.012h1.013a.376.376 0 0 0 .375-.375.378.378 0 0 0-.375-.375h-1.54l4.478-4.834zm-5.779 13.208v.764a.376.376 0 0 0 .375.375h2.087a.376.376 0 0 0 .375-.375v-.764h1.586v.764a.376.376 0 0 0 .375.375h1.961a.376.376 0 0 0 .375-.375v-.764h1.586v.764a.378.378 0 0 0 .375.375h2.087a.376.376 0 0 0 .375-.375v-.764h1.462v1.966h-.711a.376.376 0 0 0-.375.375.376.376 0 0 0 .375.375h.711v3.084a.376.376 0 0 0 .375.375.376.376 0 0 0 .375-.375v-1.629h.964a.376.376 0 0 0 .375-.375.376.376 0 0 0-.375-.375h-.964v-3.796a.372.372 0 0 0-.285-.364v-2.172h4.564v.637h-.992a.378.378 0 0 0-.375.375.376.376 0 0 0 .375.375h.992v10.766h-.932a.376.376 0 0 0-.375.375.378.378 0 0 0 .375.375h.932v.268h-4.28v-3.15a.376.376 0 0 0-.375-.375.376.376 0 0 0-.375.375v1.373h-.774a.376.376 0 0 0-.375.375.376.376 0 0 0 .375.375h.774v1.027h-4.747v-1.797h1.594a.376.376 0 0 0 .375-.375.376.376 0 0 0-.375-.375h-1.597a2.15 2.15 0 0 0-1.044-1.769l-1.256-.75a.373.373 0 0 0-.384 0l-1.256.75a2.154 2.154 0 0 0-1.046 1.843v1.202h-1.021a.376.376 0 0 0-.375.375.376.376 0 0 0 .375.375h1.021v.521H8.756v-2.293h.711a.378.378 0 0 0 .375-.375.376.376 0 0 0-.375-.375h-.711v-7.217h1.462zm7.523 7.787v2.473h-3.489v-2.473a1.398 1.398 0 0 1 .681-1.199L16 24.625l1.064.635a1.407 1.407 0 0 1 .681 1.199zM2.748 14.754v-3.041h.666v.764a.378.378 0 0 0 .375.375h1.514a.376.376 0 0 0 .375-.375v-.764h.666v.764a.378.378 0 0 0 .375.375h1.514a.376.376 0 0 0 .375-.375v-.764h.666v3.041a.26.26 0 0 1-.258.257H3.005a.258.258 0 0 1-.257-.257zm4.549 8.152h.711v3.271a.37.37 0 0 0 0 .175v1.31h-.964a.376.376 0 0 0-.375.375.376.376 0 0 0 .375.375h.964v.521h-4.28V20.06h.989a.378.378 0 0 0 .375-.375.376.376 0 0 0-.375-.375h-.989v-3.547h4.564v2.172a.376.376 0 0 0-.285.364v3.859h-.711a.376.376 0 0 0-.375.375.376.376 0 0 0 .375.375zm-5.303 7.733a1.063 1.063 0 0 1 1.059-.958h25.894a1.065 1.065 0 0 1 1.059.958H1.994z"/>
    </symbol>
    <symbol id="icon-cinema" viewBox="0 0 32 32">
      <path d="m29.971 1.252-.516-.128a36.018 36.018 0 0 0-17.412 0l-.515.128a2.675 2.675 0 0 0-2.029 2.599v3.73a36.033 36.033 0 0 0-7.652 3.155l-.468.258a2.669 2.669 0 0 0-1.286 3.033l1.559 5.83a16.62 16.62 0 0 0 10.365 11.304l1.607.589a4.847 4.847 0 0 0 5.345-1.435l1.097-1.311a16.278 16.278 0 0 0 2.489-4.031c.338-.131.66-.301.96-.505l1.401-.981A16.624 16.624 0 0 0 32 9.88V3.849a2.677 2.677 0 0 0-2.029-2.599zM19.246 28.317l-1.098 1.312a3.77 3.77 0 0 1-4.158 1.116l-1.607-.589a15.55 15.55 0 0 1-9.696-10.575l-1.56-5.83a1.6 1.6 0 0 1 .77-1.817l.467-.258a35.026 35.026 0 0 1 7.134-2.979v1.186a16.621 16.621 0 0 0 5.699 12.515c-.942.383-1.937.622-2.951.709l-4.029.327a.535.535 0 0 0-.178 1.023l5.341 2.411a2.678 2.678 0 0 0 3.281-.878l1.169-1.626.153.107a4.822 4.822 0 0 0 2.765.868c.161 0 .316-.02.474-.036a15.314 15.314 0 0 1-1.978 3.015zm-3.104-5.157c.146.107.289.223.439.328l.371.26-1.161 1.616a1.606 1.606 0 0 1-1.969.525l-3.449-1.554 1.96-.161a11.23 11.23 0 0 0 3.809-1.014zM30.929 9.882a15.55 15.55 0 0 1-6.627 12.729l-1.401.981a3.761 3.761 0 0 1-4.302 0l-1.401-.981a15.55 15.55 0 0 1-6.627-12.729V3.851c0-.737.502-1.38 1.217-1.559l.516-.129a34.954 34.954 0 0 1 16.892 0l.516.129a1.608 1.608 0 0 1 1.217 1.559v6.031z"/>
      <path d="m18.763 10.057.731-.784a4.292 4.292 0 0 0-6.062 0l-.027.027.784.731a3.213 3.213 0 0 1 4.573.027zm3.241-.784-.027.027.784.731a3.213 3.213 0 0 1 4.573.027l.731-.784a4.292 4.292 0 0 0-6.062 0zM7.639 17.822a3.215 3.215 0 0 1 2.476.342l.499-.949a4.287 4.287 0 0 0-5.855 1.568l-.019.033.463.268.482.235a3.187 3.187 0 0 1 1.953-1.496zm18.907-2.778-3.976.723c-1.204.22-2.439.22-3.643 0l-3.977-.723a.536.536 0 0 0-.435.941l4.537 3.711a2.687 2.687 0 0 0 3.392 0l4.536-3.712a.535.535 0 0 0-.435-.941v.001zm-4.779 3.824a1.612 1.612 0 0 1-2.036 0l-2.933-2.399 1.938.352c1.331.243 2.694.243 4.025 0l1.938-.352-2.932 2.399z"/>
    </symbol>
    <symbol id="icon-documentary" viewBox="0 0 32 32">
      <path d="M20.691 27.666c.404-.437.577-.973.577-1.566 0-.594-.17-1.134-.577-1.571-.397-.426-.898-.623-1.475-.623-.579 0-1.086.191-1.486.616-.409.435-.577.973-.577 1.568 0 .598.168 1.143.579 1.582.398.426.9.623 1.479.623.581 0 1.084-.198 1.481-.628zm-2.129-.706c-.193-.246-.251-.559-.251-.865 0-.304.064-.605.259-.844a.785.785 0 0 1 .641-.308c.266 0 .482.097.646.308.193.244.253.55.253.855s-.064.609-.255.851a.78.78 0 0 1-.645.312.777.777 0 0 1-.648-.308zm-2.028-2.983h-2.079a.489.489 0 0 0-.363.157.513.513 0 0 0-.147.363c0 .147.051.274.156.377a.499.499 0 0 0 .349.147h.485v2.683c0 .154.057.288.165.396l.002.004.003.002a.595.595 0 0 0 .4.163c.15 0 .281-.06.386-.168a.554.554 0 0 0 .163-.396v-2.677h.48c.14 0 .264-.051.363-.152s.152-.225.152-.366c0-.143-.051-.271-.151-.373s-.223-.157-.365-.157zm-4.027 3.13a.503.503 0 0 1-.313.094c-.175 0-.379-.062-.542-.122-.115-.041-.31-.111-.43-.111a.466.466 0 0 0-.36.159.554.554 0 0 0-.14.382v.028c0 .272.214.444.439.552.305.145.655.189.988.189.432 0 .852-.105 1.183-.398.31-.276.455-.63.455-1.046 0-.439-.17-.796-.546-1.026-.232-.149-.549-.248-.813-.324a3.192 3.192 0 0 1-.315-.099.648.648 0 0 1-.135-.06c-.033-.028-.073-.067-.073-.115 0-.067.034-.113.085-.152a.411.411 0 0 1 .251-.076c.087 0 .198.028.281.052l.158.055c.097.032.227.073.329.073a.47.47 0 0 0 .361-.163.538.538 0 0 0 .144-.374c0-.246-.168-.414-.372-.525-.253-.136-.545-.182-.829-.182-.416 0-.804.11-1.125.382-.301.26-.453.595-.453.994 0 .38.14.697.46.906.096.064.213.113.321.156.158.06.321.111.484.159.15.044.328.095.471.161a.267.267 0 0 1 .115.087c.021.039.03.085.03.129a.254.254 0 0 1-.112.216zm14.21.994c.11.106.241.166.393.166.156 0 .292-.06.398-.175a.574.574 0 0 0 .161-.4v-1.433l1.04-1.423a.564.564 0 0 0 .11-.34c0-.156-.06-.29-.173-.396a.555.555 0 0 0-.392-.163.53.53 0 0 0-.457.244l-.687.986-.682-.986a.523.523 0 0 0-.457-.244.562.562 0 0 0-.411.168.543.543 0 0 0-.167.391c0 .126.048.241.122.34l1.029 1.423v1.433c0 .159.057.299.172.409zm-1.684-2.758c0-.389-.136-.724-.428-.984-.297-.265-.664-.375-1.061-.375h-1.027a.566.566 0 0 0-.572.58v3.128c0 .157.055.296.166.407l.002.004.002.002a.6.6 0 0 0 .402.163.549.549 0 0 0 .554-.559v-.904l1.001 1.231a.56.56 0 0 0 .441.232.582.582 0 0 0 .402-.159l.003-.002.002-.003a.582.582 0 0 0 .163-.4.532.532 0 0 0-.145-.366l-.754-.83c.127-.035.257-.083.358-.152.347-.239.492-.596.492-1.012zm-1.227.267a.359.359 0 0 1-.257.105h-.473v-.681h.462c.101 0 .191.026.264.101l.002.002.004.002a.293.293 0 0 1 .106.228.326.326 0 0 1-.108.244zM7.174 28.108c.108.11.242.165.396.165a.532.532 0 0 0 .399-.172.557.557 0 0 0 .161-.393v-3.201a.571.571 0 0 0-.165-.409c-.108-.108-.241-.166-.395-.166s-.287.065-.393.177a.575.575 0 0 0-.167.398v1.023H5.542v-1.023c0-.156-.055-.292-.161-.403s-.239-.172-.393-.172a.54.54 0 0 0-.399.177.566.566 0 0 0-.167.398v3.201c0 .156.055.292.167.402.11.108.244.163.399.163s.289-.055.395-.165a.551.551 0 0 0 .159-.4v-1.134H7.01v1.134c0 .156.055.29.163.4zm1.916-3.999a.575.575 0 0 0-.167.398v3.196c0 .154.055.29.163.4s.244.165.397.165a.54.54 0 0 0 .397-.165.54.54 0 0 0 .163-.395v-3.201a.562.562 0 0 0-.161-.404.538.538 0 0 0-.791.005z"/>
      <path d="M31.37 9.983H7.913l23.03-4.452a.632.632 0 0 0 .499-.739l-.696-3.594a.63.63 0 0 0-.739-.499l-6.6 1.276a.496.496 0 0 0-.041.008L3.416 5.839l-.006.001-2.899.56a.632.632 0 0 0-.5.739l.685 3.534v20.009c0 .348.282.63.63.63H13.36a.63.63 0 1 0 0-1.26H1.956V14.904h28.783v15.148H19.034a.63.63 0 1 0 0 1.26h12.335a.63.63 0 0 0 .63-.63v-20.07a.63.63 0 0 0-.63-.63zm-10.102 3.661 1.802-2.401h3.506l-1.802 2.401h-3.506zm-5.083 0 1.801-2.401h3.508l-1.802 2.401h-3.507zm-5.084 0 1.802-2.401h3.507l-1.801 2.401h-3.508zm-5.083 0 1.802-2.401h3.507l-1.802 2.401H6.018zm-4.061-3.031a.645.645 0 1 1 1.29.002.645.645 0 0 1-1.29-.002zm6.422-4.449L10.9 8.122l-3.347.647-2.52-1.958 3.345-.647zm4.99-.965 2.521 1.958-3.345.647-2.521-1.958 3.345-.646zm4.991-.965 2.52 1.958-3.345.646-2.52-1.958 3.345-.647zm4.992-.964 2.519 1.958-3.345.647-2.52-1.958 3.347-.647zm6.732 1.143-2.568.496-2.519-1.958 4.631-.895.456 2.356zM3.388 7.128l2.52 1.958-1.81.35a1.902 1.902 0 0 0-2.448-.472l-.28-1.446 2.019-.39zm-1.431 5.277A1.909 1.909 0 0 0 4.4 11.244h1.845l-1.802 2.401H1.958v-1.239zm24.394 1.239 1.802-2.401h2.586v2.401h-4.388z"/>
      <path d="M28.196 21.616a.63.63 0 0 0 .63-.63v-2.578a.63.63 0 0 0-.63-.63H4.146a.63.63 0 0 0-.63.63v2.578c0 .348.282.63.63.63h24.05zm-.63-1.26h-7.012v-1.318h7.012v1.318zm-8.273 0h-7.286v-1.318h7.286v1.318zM4.776 19.038h5.97v1.318h-5.97v-1.318zM16.22 30.053h-.01a.63.63 0 1 0 0 1.26h.01a.63.63 0 1 0 0-1.26z"/>
    </symbol>
    <symbol id="icon-ghost" viewBox="0 0 32 32">
      <path d="M31.167 10.043a1.771 1.771 0 0 0-1.03-.976 1.772 1.772 0 0 0-1.416.099 19.26 19.26 0 0 0-2.366 1.467v-.277a10.355 10.355 0 0 0-20.71 0v.277a19.383 19.383 0 0 0-2.366-1.467 1.768 1.768 0 0 0-2.307.597 1.765 1.765 0 0 0 .394 2.351 21.277 21.277 0 0 1 3.905 4.181 48.282 48.282 0 0 1-.916 5.095l-1.39 5.656a.445.445 0 0 0 .059.344.445.445 0 0 0 .292.192l1.635.285a2.07 2.07 0 0 1 1.409.965l.199.33a2.934 2.934 0 0 0 2.831 1.402l.385-.042a2.05 2.05 0 0 1 1.617.531l.257.237a2.932 2.932 0 0 0 3.173.524l.343-.152a2.061 2.061 0 0 1 1.667 0l.343.152a2.927 2.927 0 0 0 3.173-.523l.257-.237a2.057 2.057 0 0 1 1.617-.531l.386.042a2.943 2.943 0 0 0 2.831-1.402l.2-.33a2.04 2.04 0 0 1 1.408-.965l1.635-.285a.442.442 0 0 0 .351-.536l-1.389-5.653a48.17 48.17 0 0 1-.918-5.1 21.312 21.312 0 0 1 3.906-4.181 1.752 1.752 0 0 0 .533-2.069zm-1.071 1.379a22.078 22.078 0 0 0-4.19 4.528.431.431 0 0 0-.067.29c.219 1.802.538 3.591.955 5.358l1.278 5.2-1.175.205a2.938 2.938 0 0 0-2.008 1.375l-.2.33a2.06 2.06 0 0 1-1.987.984l-.386-.042a2.932 2.932 0 0 0-2.304.757l-.257.236a2.052 2.052 0 0 1-2.226.367l-.343-.152a2.924 2.924 0 0 0-2.375 0l-.343.152a2.063 2.063 0 0 1-2.226-.367l-.257-.236c-.308-.283-.673-.497-1.07-.628s-.818-.175-1.234-.129l-.386.042a2.064 2.064 0 0 1-1.986-.984l-.199-.33a2.932 2.932 0 0 0-2.008-1.375l-1.175-.205 1.279-5.205a48.83 48.83 0 0 0 .954-5.354.444.444 0 0 0-.067-.291 22.089 22.089 0 0 0-4.188-4.527.888.888 0 0 1 .33-1.557.887.887 0 0 1 .637.074 17.373 17.373 0 0 1 2.916 1.911.442.442 0 0 0 .46.062.442.442 0 0 0 .257-.386c.009-.39.017-.78.017-1.17a9.477 9.477 0 0 1 16.182-6.703 9.477 9.477 0 0 1 2.776 6.703c0 .39.008.78.017 1.17a.443.443 0 0 0 .256.388.434.434 0 0 0 .46-.061 17.454 17.454 0 0 1 2.916-1.911.894.894 0 0 1 1.024.142.898.898 0 0 1 .252.865.883.883 0 0 1-.308.475z"/>
      <path d="M12.766 5.531c-1.008 0-1.828 1.003-1.828 2.235S11.758 10 12.766 10s1.828-1.003 1.828-2.234-.819-2.235-1.828-2.235zm0 3.594c-.517 0-.953-.623-.953-1.359s.438-1.36.953-1.36c.515 0 .953.623.953 1.36s-.437 1.359-.953 1.359zm6.468-3.594c-1.008 0-1.828 1.003-1.828 2.235S18.226 10 19.234 10s1.828-1.003 1.828-2.234-.82-2.235-1.828-2.235zm0 3.594c-.516 0-.953-.623-.953-1.359s.437-1.36.953-1.36c.517 0 .953.623.953 1.36s-.438 1.359-.953 1.359zM16 9.719c-1.06 0-1.891 1.27-1.891 2.891S14.94 15.5 16 15.5s1.89-1.27 1.89-2.89-.83-2.891-1.89-2.891zm0 4.906c-.48 0-1.016-.862-1.016-2.015s.536-2.016 1.016-2.016c.479 0 1.015.862 1.015 2.016s-.536 2.015-1.015 2.015z"/>
    </symbol>
    <symbol id="icon-hearts" viewBox="0 0 32 32">
      <path d="M31.698 12.905c0-2.305-.876-4.466-2.466-6.086a8.399 8.399 0 0 0-6.039-2.525A8.588 8.588 0 0 0 16 8.17a8.59 8.59 0 0 0-7.193-3.876c-2.295 0-4.44.897-6.039 2.525C1.178 8.438.302 10.6.302 12.905c0 2.16.625 3.423 1.128 4.438l.055.11c2.08 4.214 13.71 13.88 14.204 14.289L16 32l.312-.257c.012-.01 1.109-.915 2.671-2.27 1.456 1.298 2.613 2.259 2.625 2.269l.311.258.312-.257c.306-.252 7.498-6.2 8.729-8.798l.034-.072c.297-.625.704-1.481.704-2.783 0-1.13-.331-2.199-.957-3.113.421-.903.957-2.204.957-4.073zm-1.588 9.548-.035.073c-1.002 2.114-6.745 7.017-8.155 8.201a110.176 110.176 0 0 1-2.606-2.271c-1.711-1.539-3.084-2.88-4.054-3.953a18.787 18.787 0 0 1-.944-1.126 5.653 5.653 0 0 1-.556-.859l-.02-.041c-.286-.578-.61-1.234-.61-2.388 0-2.507 1.931-4.471 4.396-4.471 1.667 0 3.184.918 3.96 2.394l.433.824.433-.824a4.462 4.462 0 0 1 3.96-2.394c1.372 0 2.639.623 3.474 1.709.61.792.932 1.747.932 2.762 0 1.081-.323 1.762-.609 2.363zm-.068-6.308-.006-.006a5.972 5.972 0 0 0-.165-.153l-.029-.026a5.912 5.912 0 0 0-.171-.144l-.034-.027a6.161 6.161 0 0 0-.377-.273l-.028-.019a3.726 3.726 0 0 0-.19-.117l-.038-.022a5.395 5.395 0 0 0-.196-.109l-.024-.012a5.881 5.881 0 0 0-.195-.096l-.025-.012a5.328 5.328 0 0 0-.206-.089l-.041-.017a5.267 5.267 0 0 0-.209-.079l-.031-.011a5.034 5.034 0 0 0-.208-.067l-.021-.006a5.432 5.432 0 0 0-.219-.059l-.043-.011a4.289 4.289 0 0 0-.219-.048l-.037-.007a5.719 5.719 0 0 0-.222-.038l-.012-.002a5.608 5.608 0 0 0-.231-.028l-.044-.004a5.636 5.636 0 0 0-.227-.016l-.042-.002a5.436 5.436 0 0 0-4.632 2.218 5.436 5.436 0 0 0-5.199-2.165 5.282 5.282 0 0 0-3.014 1.541 5.463 5.463 0 0 0-1.555 3.85c0 1.382.394 2.18.711 2.821l.02.041.06.116.021.039.046.082.029.049.046.077.034.055.048.076.039.059.051.076.043.062.054.078.047.065a5.406 5.406 0 0 1 .108.148l.061.081.055.071.064.083.059.075.068.084.063.077a6.648 6.648 0 0 1 .137.167 7.007 7.007 0 0 1 .145.171l.079.091.074.085.082.093.077.087.086.096.081.089.09.098.085.092.093.099.089.095a9.395 9.395 0 0 1 .189.199l.1.104.096.1.105.108.098.1.113.114.098.098.12.12.196.194.123.121.113.11.119.116.121.116.119.114.125.12.122.116.127.12.127.12.132.123.129.12.139.129.13.12.142.131.135.123.144.131.086.079a172.81 172.81 0 0 1-2.248 1.915C14.102 29.135 4.164 20.679 2.358 17.02l-.055-.111c-.481-.971-1.026-2.072-1.026-4.003 0-4.28 3.306-7.632 7.526-7.632a7.618 7.618 0 0 1 6.76 4.087l.433.824.433-.824a7.618 7.618 0 0 1 6.76-4.087c4.22 0 7.526 3.352 7.526 7.632 0 1.407-.334 2.44-.678 3.241zM9.245 0h-.979v3.047h.979V0zm3.739.889-1.279 2.766.888.411L13.872 1.3l-.888-.411zM4.527.888l-.888.411 1.279 2.766.888-.411L4.527.888z"/>
      <path d="m3.369 13.439.001-.138-.979-.02-.002.158c0 .656.067 1.254.204 1.828l.952-.228a6.817 6.817 0 0 1-.177-1.601zm1.327-5.38a7.365 7.365 0 0 0-2.212 4.195l.967.153a6.378 6.378 0 0 1 1.916-3.635l-.67-.713zm11.582 8.618c-1.346.624-2.226 1.949-2.297 3.458l.978.046c.054-1.143.717-2.146 1.731-2.616l-.412-.888z"/>
    </symbol>
    <symbol id="icon-killer" viewBox="0 0 32 32">
      <path d="m4.007 20.005.5 3c.021.127.09.241.193.318l3.875 2.906.451 1.352a.502.502 0 0 0 .557.335l.24-.04-.296.889a.498.498 0 0 0-.026.158v1.5a.498.498 0 0 0 .5.5h12a.513.513 0 0 0 .489-.397.503.503 0 0 0-.004-.225l-.301-1.197 3.069 1.753a.505.505 0 0 0 .664-.157s1.041-1.574 1.045-1.586l.524-2.07a.494.494 0 0 0-.262-.568l-1-.5a.499.499 0 0 0-.577.094s-1.091 1.115-1.115 1.181l-1.216-.679 2.058-2.316a.506.506 0 0 0 .124-.282l.5-5a.491.491 0 0 0-.007-.148l-.783-3.914a4.154 4.154 0 0 0-3.069-3.219l-.998-.249-2.786-.929-.355-.709v-.757l.3-.225a.5.5 0 0 0 .2-.4v-1a.498.498 0 0 0 .5-.5V5.002c.331-1.02.5-2.087.5-3.16v-.419a.498.498 0 0 0-.5-.5h-2.586a3.884 3.884 0 0 0-2.708 1.088l-.812.406A2.528 2.528 0 0 0 11.5 4.673a2.516 2.516 0 0 0 1.395 2.256l.11.055a.5.5 0 0 0 .496.439v1a.499.499 0 0 0 .2.4l.3.225v.757l-.362.724-2.234.894h-.327a4.824 4.824 0 0 0-4.755 4.027l-.294 1.762L4.11 19.61a.487.487 0 0 0-.102.394zm6.493 8.999.438-1.314 1.644-.274a.5.5 0 0 0 .393-.335l.332-.997 3.672 1.469-.395.593a.502.502 0 0 0 .104.668l1.387 1.11H10.5v-.919zm.654-10.821.214 1.711-1.077-.602.863-1.109zm4.146-3.66a1.17 1.17 0 0 0 1.4 0 4.525 4.525 0 0 0 1.748-2.924l.05.017a12.714 12.714 0 0 1-.97 4.697 12.81 12.81 0 0 1-.875 1.73l-.152-.03v-1.59a.498.498 0 0 0-.5-.5.498.498 0 0 0-.5.5v1.61l-1.442.36-1.835-.917a.477.477 0 0 0-.157-.048L12 16.892v-4.63l1.558-.623a4.53 4.53 0 0 0 1.742 2.885zm4.789 14.604-.626.626-1.793-1.434.651-.976.48-.16.013-.005 1.751 1-.012.021-.464.927zm-3.375-6.246 1.203-1.324a13.77 13.77 0 0 0 2.497-3.903l-.895 3.131a.492.492 0 0 0-.019.137v3.515l-2.786-1.557zm3.786-1.888.628-2.197.372.745v3.222l-1 1.4v-3.17zm0-8.703a12.754 12.754 0 0 1-3.323 8.596l-1.36 1.495-1.006-.562.653-.653a13.774 13.774 0 0 0 4.025-9.219l1.01.337v.006zm-8.049 8.209-.239-1.911 1.564.782a.502.502 0 0 0 .345.038l1.891-.473.041.008a12.896 12.896 0 0 1-1.295 1.515l-.853.853-1.454-.812zm-2.781-.408 4.943 2.762-.529.793a.499.499 0 0 0 .695.694.507.507 0 0 0 .138-.139l.572-.858.703.393-.607.911a.499.499 0 0 0 .695.694.507.507 0 0 0 .138-.139l.651-.976 1.732.968-.736 1.183-.221.074a.5.5 0 0 0-.258.197l-.038.057-4.265-1.706-1.427-1.427a.505.505 0 0 0-.353-.146h-1.26L8.64 21.422l1.033-1.328zm11.037 9.832.146-.146a.502.502 0 0 0 .094-.13l.227-.454.184.731h-.651zm4.636-.166-6.054-3.459.384-.617 6.111 3.415-.441.661zm.756-2.726.319.159-.244.977-.777-.434.702-.702zm-2.736-13.538c.441.441.742 1.002.864 1.614l.768 3.841-.476 4.764-2.097 2.359-1.469-.821 1.455-2.036a.497.497 0 0 0 .093-.291v-3.5a.499.499 0 0 0-.053-.224l-.947-1.894v-4.742l.396.099a3.163 3.163 0 0 1 1.468.831zM14 6.423v-1h4v1h-.882l-.894-.447a.496.496 0 0 0-.448 0l-.894.447H14zm-1.5-1.75a1.509 1.509 0 0 1 .841-1.362l.882-.441a.502.502 0 0 0 .13-.094 2.892 2.892 0 0 1 2.061-.853h2.085a9.242 9.242 0 0 1-.367 2.5H13.5a.498.498 0 0 0-.5.5v.879a1.51 1.51 0 0 1-.5-1.129zm2.5 2.75a.499.499 0 0 0 .224-.053L16 6.982l.776.388a.496.496 0 0 0 .224.053h.5v.75l-1 .75h-1l-1-.75v-.75h.5zm.033 2.4a.5.5 0 0 0 .3.1h1.333a.5.5 0 0 0 .3-.1l.033-.025v.125c0 .078.018.154.053.224l.444.888a3.521 3.521 0 0 1-1.397 2.689c-.029.021-.064.033-.1.033s-.071-.012-.1-.033a3.517 3.517 0 0 1-1.397-2.688l.444-.888a.496.496 0 0 0 .053-.224v-.125l.033.025zM6.89 17.736a.506.506 0 0 0 .103-.23l.315-1.89A3.82 3.82 0 0 1 11 12.425v4.328l-1.735 2.23c-.062.033-.116.079-.16.134s-.074.119-.09.188l-1.41 1.812a.498.498 0 0 0 .005.619l2 2.5a.509.509 0 0 0 .39.187h1.293l1.135 1.135-.307.921-2.282.38-.365-1.095a.503.503 0 0 0-.174-.242l-3.84-2.88-.43-2.582 1.86-2.326z"/>
    </symbol>
    <symbol id="icon-rocket" viewBox="0 0 32 32">
      <path d="m15.488 20.726-4.212-4.438a.304.304 0 0 1 .011-.429l6.891-6.539.024-.023c1.372-1.046 3.172-1.315 5.502-.825a.301.301 0 0 1 .237.25c.37 2.354.006 4.136-1.112 5.452l-.022.023-6.891 6.539a.304.304 0 0 1-.428-.01zm-3.563-4.636 3.794 3.998 6.659-6.319c.971-1.148 1.289-2.66.996-4.743-2.064-.4-3.591-.161-4.79.746l-6.659 6.318z"/>
      <path d="M9.745 15.585c-.029-.03-.051-.066-.065-.106s-.02-.081-.018-.123l.041-.604a3.208 3.208 0 0 1 2.058-2.804l.037-.014a5.107 5.107 0 0 1 3.802.107c.044.022.081.054.11.093s.047.085.054.133a.307.307 0 0 1-.091.265l-3.097 2.939a.307.307 0 0 1-.285.074 4.056 4.056 0 0 0-2.216.114.304.304 0 0 1-.329-.075zm2.121-3.351.106.284a2.595 2.595 0 0 0-1.664 2.276l-.012.17a4.608 4.608 0 0 1 1.98-.043l2.626-2.492a4.644 4.644 0 0 0-2.897.077l-.139-.272zm4.245 10.06a.298.298 0 0 1-.057-.332c.28-.7.359-1.464.229-2.207a.302.302 0 0 1 .088-.281l3.098-2.94a.302.302 0 0 1 .486.098 5.112 5.112 0 0 1-.091 3.802l-.016.036a3.208 3.208 0 0 1-2.906 1.908l-.606.009a.302.302 0 0 1-.224-.095zm.797-2.493a4.613 4.613 0 0 1-.146 1.975l.17-.003a2.604 2.604 0 0 0 2.358-1.542l.292.087-.279-.118a4.632 4.632 0 0 0 .228-2.889l-2.623 2.49zm2.521-7.031a1.598 1.598 0 1 1 2.318-2.201 1.598 1.598 0 0 1-2.318 2.201zm1.878-1.783a.987.987 0 0 0-1.709.655.99.99 0 1 0 1.711-.656zm-6.946 10.375-3.78-3.983a.304.304 0 0 1 .011-.429l.91-.864a.304.304 0 0 1 .429.011l3.78 3.983a.304.304 0 0 1-.011.429l-.91.864a.304.304 0 0 1-.429-.011zm-3.13-4.18 3.362 3.542.47-.446-3.362-3.542-.47.446z"/>
      <path d="M8.469 23.2a1.006 1.006 0 0 1-.135-1.121 7.55 7.55 0 0 0 .502-1.89c.179-1.108.32-1.984 2.267-2.848a.302.302 0 0 1 .344.069l2.93 3.087a.302.302 0 0 1 .05.346c-.24.512-.564.98-.959 1.385-.621.59-1.257.664-1.994.751a7.587 7.587 0 0 0-1.895.413 1.008 1.008 0 0 1-1.108-.189l-.001-.001zm2.686-5.217c-1.461.691-1.555 1.275-1.721 2.302a8.112 8.112 0 0 1-.542 2.03c-.083.194-.076.369.017.467.092.097.264.111.46.039a8.238 8.238 0 0 1 2.034-.446c.705-.084 1.172-.138 1.647-.588.297-.303.546-.651.737-1.031l-2.632-2.773z"/>
      <path d="M10.543 21.216a.67.67 0 0 1-.098-.733c.122-.298.205-.611.247-.93.091-.558.17-1.04 1.082-1.49a.3.3 0 0 1 .353.064l1.567 1.651a.307.307 0 0 1 .045.357 2.463 2.463 0 0 1-.434.59 1.7 1.7 0 0 1-1.104.424 3.768 3.768 0 0 0-.932.203.662.662 0 0 1-.725-.133l-.001-.001zm1.303-2.505c-.446.263-.483.494-.556.939a4.313 4.313 0 0 1-.287 1.069.16.16 0 0 0-.017.083c0-.007.028-.005.072-.021a4.336 4.336 0 0 1 1.073-.236c.275.007.544-.086.756-.261a1.42 1.42 0 0 0 .208-.256l-1.25-1.315zm2.762-1.366a.304.304 0 0 1 .011-.429l1.29-1.225a.304.304 0 0 1 .512.228.302.302 0 0 1-.094.212l-1.29 1.225a.304.304 0 0 1-.429-.011zm-.977-1.039a.304.304 0 0 1 .011-.429l.567-.539a.304.304 0 0 1 .512.228.302.302 0 0 1-.094.212l-.567.539a.304.304 0 0 1-.429-.011zm1.961 2.066a.304.304 0 0 1 .011-.429l.567-.539a.304.304 0 0 1 .512.228.302.302 0 0 1-.094.212l-.567.539a.304.304 0 0 1-.429-.011z"/>
    </symbol>
    <symbol id="icon-smile" viewBox="0 0 32 32">
      <path d="M22.725 19.656a.695.695 0 0 0-.982.054c-1.451 1.622-3.544 2.551-5.743 2.551s-4.291-.929-5.743-2.551a.695.695 0 1 0-1.036.928A9.1 9.1 0 0 0 16 23.652a9.103 9.103 0 0 0 6.779-3.014.696.696 0 0 0-.054-.982z"/>
      <path d="M16 0C7.178 0 0 7.178 0 16s7.178 16 16 16 16-7.178 16-16S24.822 0 16 0zm0 30.609C7.944 30.609 1.391 24.056 1.391 16S7.944 1.391 16 1.391c8.056 0 14.609 6.553 14.609 14.609S24.056 30.609 16 30.609z"/>
      <path d="M21.565 11.13a3.482 3.482 0 0 0-3.478 3.478.697.697 0 0 0 1.392 0c0-1.151.936-2.087 2.087-2.087s2.087.936 2.087 2.087a.697.697 0 0 0 1.392 0 3.482 3.482 0 0 0-3.478-3.478zm-9.043 3.479a.697.697 0 0 0 1.392 0c0-1.918-1.56-3.478-3.478-3.478s-3.478 1.56-3.478 3.478a.697.697 0 0 0 1.392 0c0-1.151.936-2.087 2.087-2.087s2.087.936 2.087 2.087z"/>
    </symbol>
  </defs>
</svg>
